<svg id="Layer_1" data-name="Layer 1" xmlns="http://www.w3.org/2000/svg" viewBox="0 0 371 792"><defs><style>.cls-1{fill:#9b8664;}</style></defs><title>Lineee</title><polygon class="cls-1" points="248.34 793.17 248.44 788.17 248.6 788.17 248.34 793.17"/><path class="cls-1" d="M248,783.25a62.44,62.44,0,0,0-8.15-23.07l1-.54a63,63,0,0,1,7.5,23.58Z"/><path class="cls-1" d="M237.32,756a92.29,92.29,0,0,0-9.08-11.6l1.18-1.06a93.7,93.7,0,0,1,8.93,12Z"/><path class="cls-1" d="M226.9,743l-3.49-3.46c-.57-.59-1.19-1.13-1.79-1.68l-1.82-1.66,1.26-1.39,1.8,1.72c.6.58,1.21,1.14,1.78,1.75l3.46,3.6Z"/><path class="cls-1" d="M216.07,733c-6.32-5.23-13-10-19.83-14.65l1.49-2.11c6.69,4.85,13.35,9.8,19.62,15.25Z"/><polygon class="cls-1" points="192.15 715.5 179.92 707.02 181.74 704.55 193.71 713.29 192.15 715.5"/><path class="cls-1" d="M178.31,705.85l-4-3c-.66-.5-1.34-1-2-1.5l-2-1.55,2.14-2.58,1.88,1.56c.62.52,1.28,1,1.92,1.52l3.88,3Z"/><path class="cls-1" d="M166.51,696.54A56.45,56.45,0,0,1,158,687a31.76,31.76,0,0,1-5.26-12l3.84-.71A28,28,0,0,0,161,685a53.8,53.8,0,0,0,7.82,9Z"/><path class="cls-1" d="M152.27,669.74a33,33,0,0,1,4.15-15.13l3.73,2a28.9,28.9,0,0,0-3.89,13.18Z"/><path class="cls-1" d="M157.44,652.8a56,56,0,0,1,6.12-8.28l3.32,3A51.71,51.71,0,0,0,161.1,655Z"/><path class="cls-1" d="M167.07,640.81A120.57,120.57,0,0,1,187,625.33l2.62,4.16a120.26,120.26,0,0,0-19.35,14.58Z"/><path class="cls-1" d="M191.23,622.68c4.3-2.59,8.68-5,13.11-7.31l2.35,4.6c-4.38,2.21-8.7,4.53-12.92,7Z"/><polygon class="cls-1" points="206.12 614.46 214.94 610.01 217.37 614.74 208.45 619.09 206.12 614.46"/><path class="cls-1" d="M219.22,607.7a71.23,71.23,0,0,0,9.9-6.6,35.85,35.85,0,0,0,7.71-8.44l4.77,3.08a41.45,41.45,0,0,1-9,9.67,76.57,76.57,0,0,1-10.76,7Z"/><path class="cls-1" d="M239,588.67a37.06,37.06,0,0,0,2.87-13.38l5.91.28A42.55,42.55,0,0,1,244.2,591Z"/><path class="cls-1" d="M241.87,573.42l0-2.36c0-.78-.09-1.58-.15-2.36l-.42-4.74,6-.77.42,5.13c.06.86.16,1.71.15,2.57l0,2.59Z"/><path class="cls-1" d="M240.48,559.27A78.43,78.43,0,0,0,232.32,537l5.48-3a84.57,84.57,0,0,1,8.61,24.11Z"/><path class="cls-1" d="M229.91,532.86a80.79,80.79,0,0,0-8.62-11.39l4.74-4.27a87.12,87.12,0,0,1,9.2,12.35Z"/><path class="cls-1" d="M220,520.08a78.31,78.31,0,0,0-7-6.48l4.13-5a84.76,84.76,0,0,1,7.48,7.07Z"/><path class="cls-1" d="M209.28,510.7a73.7,73.7,0,0,0-10.12-6.15c-3.55-1.79-7.3-3.37-11.11-5l2.69-6.13c3.75,1.66,7.61,3.31,11.41,5.27a80.28,80.28,0,0,1,11,6.78Z"/><path class="cls-1" d="M183.47,497.48A70.11,70.11,0,0,1,170,489.67l4.12-5.34a63.59,63.59,0,0,0,12.18,7.07Z"/><path class="cls-1" d="M168.33,488.33a50.37,50.37,0,0,1-7.33-7.66l5.36-4.15a43.6,43.6,0,0,0,6.33,6.65Z"/><path class="cls-1" d="M158,476.35a66.5,66.5,0,0,1-9.07-24.3l6.76-1.14a59.71,59.71,0,0,0,8.06,21.82Z"/><path class="cls-1" d="M148.21,446.91c-.11-1.29-.23-2.59-.29-3.86s-.11-2.56-.13-3.84c0-2.56,0-5.12.15-7.67l6.89.39c-.14,2.39-.19,4.79-.16,7.18,0,1.2.05,2.39.12,3.58s.16,2.37.26,3.54Z"/><path class="cls-1" d="M148.07,429.51q.37-5.09,1.18-10.12l6.84,1.09q-.77,4.75-1.13,9.54Z"/><path class="cls-1" d="M150.14,414.37a149.66,149.66,0,0,1,7.1-24.3l6.53,2.5a144.6,144.6,0,0,0-6.82,23.16Z"/><path class="cls-1" d="M159.12,385.38q2.93-7,6.44-13.7l6.16,3.2q-3.35,6.48-6.16,13.2Z"/><polygon class="cls-1" points="166.5 369.89 171.48 361.13 177.4 364.69 172.62 373.16 166.5 369.89"/><path class="cls-1" d="M174.13,356.84l3.46-5.25,3.45-5.1c2.26-3.39,4.42-6.79,6.3-10.27l6,3.23c-2,3.79-4.3,7.36-6.6,10.84l-3.47,5.16L180,360.55Z"/><path class="cls-1" d="M189.43,332a32,32,0,0,0,3.22-12.91l6.79,0a31.82,31.82,0,0,1-1.09,8.23,48.72,48.72,0,0,1-2.68,7.52Z"/><path class="cls-1" d="M192.57,317.42a17.09,17.09,0,0,0-2.69-7.75l5.68-3.67a23.92,23.92,0,0,1,3.77,10.77Z"/><path class="cls-1" d="M187.2,306.33a29.83,29.83,0,0,0-4.24-3.59,39.71,39.71,0,0,0-4.9-2.91c-3.47-1.75-7.24-3.19-11.09-4.7l2.4-6.21a125,125,0,0,1,11.72,4.91,46.38,46.38,0,0,1,5.75,3.39,36.5,36.5,0,0,1,5.21,4.39Z"/><path class="cls-1" d="M162.3,293.27c-2.35-1-4.71-2-7-3.27a44,44,0,0,1-6.71-4.38l4-5.1a49.05,49.05,0,0,0,12.21,6.63Z"/><path class="cls-1" d="M146.92,284.23A38,38,0,0,1,140,276l5.43-3.42a31.52,31.52,0,0,0,5.82,6.81Z"/><path class="cls-1" d="M137.43,271.28A68.07,68.07,0,0,1,133.28,259c-1-4.13-1.82-8.15-2.73-12.17l6-1.34c.94,4,1.79,8.09,2.78,12a61.89,61.89,0,0,0,3.83,11.12Z"/><path class="cls-1" d="M129.53,241.9a65.68,65.68,0,0,1-1.44-15.48l6,.26a59.8,59.8,0,0,0,1.44,14Z"/><path class="cls-1" d="M128.25,224.3a37.26,37.26,0,0,1,2.53-10.42l5.52,2.21a31.24,31.24,0,0,0-2.06,8.77Z"/><path class="cls-1" d="M133.14,209.06a41.32,41.32,0,0,1,8.43-10.24,56.74,56.74,0,0,1,10.73-7.35l2.7,4.91a51.1,51.1,0,0,0-9.58,6.72,35.64,35.64,0,0,0-7.14,8.88Z"/><path class="cls-1" d="M156.85,189.18c4.6-2.16,9.27-4,13.88-5.78l2,5c-4.59,1.87-9.13,3.7-13.47,5.81Z"/><polygon class="cls-1" points="172.57 182.68 181.62 178.94 183.76 183.69 174.56 187.63 172.57 182.68"/><path class="cls-1" d="M186,176.89a68.12,68.12,0,0,0,10.22-6.14,38.84,38.84,0,0,0,4.43-3.78,41.15,41.15,0,0,0,3.83-4.4l3.88,2.88a46,46,0,0,1-4.23,5,43.85,43.85,0,0,1-4.92,4.31,73.15,73.15,0,0,1-10.89,6.74Z"/><path class="cls-1" d="M207.12,158.66a59.72,59.72,0,0,0,5.76-13l4.31,1.31a64.34,64.34,0,0,1-6,14.17Z"/><path class="cls-1" d="M213.43,143.77a84.35,84.35,0,0,0,2.12-9.41l4.25.67a88.73,88.73,0,0,1-2.06,9.94Z"/><path class="cls-1" d="M216.2,129.58a75.35,75.35,0,0,0-1-24l3.69-.84A79.32,79.32,0,0,1,220.4,130Z"/><path class="cls-1" d="M214,100.94A48.61,48.61,0,0,0,207.89,88l2.81-1.94a50.93,50.93,0,0,1,6.78,13.75Z"/><path class="cls-1" d="M206.8,86.46a40.53,40.53,0,0,0-6.5-6.93l2-2.42a43.78,43.78,0,0,1,7.2,7.31Z"/><path class="cls-1" d="M196.47,76.68a59.83,59.83,0,0,0-10.78-5.43c-3.78-1.51-7.69-2.81-11.6-4.15l.75-2.29c3.93,1.24,7.89,2.45,11.82,3.91a62.62,62.62,0,0,1,11.43,5.42Z"/><path class="cls-1" d="M169.4,65.46c-2.34-.85-4.68-1.75-7-2.77-1.15-.51-2.29-1-3.41-1.62s-2.21-1.21-3.31-1.83l1-1.67c1.07.57,2.13,1.17,3.23,1.69s2.21,1,3.34,1.49c2.26.94,4.57,1.76,6.9,2.55Z"/><path class="cls-1" d="M154,58.17a54.54,54.54,0,0,1-7.9-6.23l1.12-1.2A52.78,52.78,0,0,0,155,56.58Z"/><path class="cls-1" d="M142.62,48.33A71.94,71.94,0,0,1,130,26.92l.8-.33a72.87,72.87,0,0,0,13,20.71Z"/><path class="cls-1" d="M128.27,22.26c-1.62-4.7-3-9.48-4.16-14.28l.22-.06c1.36,4.76,2.85,9.48,4.61,14.1Z"/><polygon class="cls-1" points="123.62 6.03 122.47 1.17 123.78 5.99 123.62 6.03"/></svg>