<?xml version="1.0" encoding="UTF-8" standalone="no"?>
<!DOCTYPE svg PUBLIC "-//W3C//DTD SVG 1.1//EN" "http://www.w3.org/Graphics/SVG/1.1/DTD/svg11.dtd">
<svg id="Layer_1" data-name="Layer 1" xmlns="http://www.w3.org/2000/svg" viewBox="344.5639097744361 330.27819548872174 111.73684210526318 91.21804511278197" width="53.87" height="43.61">

<path class="cls-1" d="M 7.55 -0.01 H 36.06 A 7.55 7.55 0 0 1 43.61 7.54 V 36.05 A 7.55 7.55 0 0 1 36.06 43.6 H 7.55 A 7.55 7.55 0 0 1 0 36.05 V 7.54 A 7.55 7.55 0 0 1 7.55 -0.01 Z" style="fill: rgb(255, 242, 0);"/>
<path class="cls-2" d="M 31.09 6.76 L 9.53 19.21 C 7.543 20.388 7.577 23.274 9.59 24.406 C 9.861 24.558 10.155 24.668 10.46 24.73 C 18.202 26.193 25.22 30.236 30.37 36.2 C 31.897 37.932 34.727 37.361 35.463 35.172 C 35.569 34.859 35.622 34.53 35.62 34.2 L 35.62 9.36 C 35.635 7.051 33.144 5.591 31.137 6.733 C 31.121 6.742 31.106 6.751 31.09 6.76 Z" style="fill: none; stroke: rgb(35, 31, 32); stroke-miterlimit: 10; stroke-width: 4.1px;"/>
<path class="cls-3" d="M 29.01 13.14 L 19.01 18.93 C 18.074 19.449 18.05 20.786 18.968 21.337 C 19.092 21.412 19.228 21.467 19.37 21.5 C 22.963 22.184 26.219 24.062 28.61 26.83 C 29.311 27.638 30.624 27.384 30.974 26.373 C 31.024 26.227 31.05 26.074 31.05 25.92 L 31.05 14.36 C 31.044 13.317 29.932 12.652 29.01 13.14 Z" style="fill: rgb(35, 31, 32);"/>
<path class="cls-3" d="M 27.72 17.08 L 24.82 18.76 C 24.553 18.914 24.554 19.299 24.821 19.453 C 24.861 19.476 24.904 19.492 24.95 19.5 C 25.988 19.698 26.929 20.241 27.62 21.04 C 27.815 21.279 28.195 21.217 28.304 20.929 C 28.322 20.882 28.331 20.831 28.33 20.78 L 28.33 17.43 C 28.337 17.122 28.009 16.922 27.739 17.069 C 27.732 17.073 27.726 17.076 27.72 17.08 Z" style="fill: rgb(35, 31, 32);"/>

</svg>